<?xml version="1.0" encoding="UTF-8" standalone="no"?>
<!DOCTYPE svg PUBLIC "-//W3C//DTD SVG 20010904//EN"
              "http://www.w3.org/TR/2001/REC-SVG-20010904/DTD/svg10.dtd">

<svg xmlns="http://www.w3.org/2000/svg"
     width="0.383333in" height="3.24333in"
     viewBox="0 0 115 973">
  <path id="Selection #2"
        fill="none" stroke="black" stroke-width="1"
        d="M 4.00,14.00
           C 4.00,14.00 4.00,129.00 4.00,129.00
             29.70,118.72 51.75,116.86 79.00,121.43
             79.00,121.43 110.00,129.00 110.00,129.00
             110.00,129.00 110.00,12.00 110.00,12.00
             110.00,12.00 21.00,12.00 21.00,12.00
             21.00,12.00 4.00,14.00 4.00,14.00 Z
           M 4.00,370.00
           C 4.00,370.00 24.00,363.66 24.00,363.66
             37.28,360.69 45.74,360.98 59.00,361.00
             69.51,361.02 84.69,363.83 95.00,366.37
             95.00,366.37 110.00,370.00 110.00,370.00
             110.00,370.00 110.00,139.00 110.00,139.00
             110.00,136.92 110.23,133.26 108.98,131.56
             107.48,129.53 97.80,127.32 95.00,126.65
             82.10,123.61 68.23,121.55 55.00,121.04
             50.44,120.86 49.10,121.44 45.00,122.00
             45.00,122.00 36.00,122.00 36.00,122.00
             36.00,122.00 18.00,125.63 18.00,125.63
             14.77,126.46 7.79,128.23 5.60,130.65
             3.66,132.79 4.01,136.28 4.00,139.00
             4.00,139.00 4.00,370.00 4.00,370.00 Z
           M 4.00,973.00
           C 4.00,973.00 110.00,973.00 110.00,973.00
             110.00,973.00 110.00,642.00 110.00,642.00
             110.00,640.00 110.26,636.34 109.01,634.72
             107.77,633.13 103.94,632.26 102.00,631.71
             102.00,631.71 84.00,627.92 84.00,627.92
             59.54,623.87 27.17,623.44 5.00,636.00
             10.88,629.35 24.40,626.53 33.00,625.08
             53.10,621.70 72.15,623.04 92.00,627.42
             92.00,627.42 110.00,632.00 110.00,632.00
             110.00,632.00 110.00,372.00 110.00,372.00
             93.35,368.64 77.23,363.21 60.00,363.00
             43.78,362.81 35.04,362.85 19.00,366.87
             15.36,367.79 6.23,369.86 4.57,373.39
             3.86,374.90 4.00,378.27 4.00,380.00
             4.00,380.00 4.00,509.00 4.00,509.00
             4.00,509.00 4.00,973.00 4.00,973.00 Z" />
</svg>
